<?xml version="1.0" standalone="no"?>
<!DOCTYPE svg PUBLIC "-//W3C//DTD SVG 20010904//EN"
 "http://www.w3.org/TR/2001/REC-SVG-20010904/DTD/svg10.dtd">
<svg version="1.0" xmlns="http://www.w3.org/2000/svg"
 width="1920.000000pt" height="1080.000000pt" viewBox="0 0 1920.000000 1080.000000"
 preserveAspectRatio="xMidYMid meet">

<g transform="translate(0.000000,1080.000000) scale(0.100000,-0.100000)"
fill="#000000" stroke="none">
<path d="M9645 8719 c-363 -32 -624 -245 -732 -596 -25 -81 -27 -101 -27 -263
0 -149 4 -187 22 -255 55 -198 173 -368 324 -468 174 -114 323 -152 558 -144
175 6 264 27 399 93 203 100 353 308 385 537 l7 47 -190 0 -190 0 -12 -42
c-57 -214 -268 -335 -521 -299 -214 30 -354 168 -393 386 -50 279 48 534 239
624 178 83 419 60 555 -55 46 -39 92 -109 111 -173 l18 -56 192 -3 192 -2 -7
42 c-58 348 -336 596 -700 624 -38 2 -86 6 -105 8 -19 2 -75 -1 -125 -5z"/>
<path d="M11315 8719 c-254 -20 -423 -107 -498 -258 -30 -62 -32 -71 -32 -181
0 -109 2 -119 31 -180 75 -153 189 -223 604 -366 287 -98 337 -119 397 -163
86 -63 77 -161 -19 -209 -100 -50 -382 -53 -525 -6 -63 20 -126 72 -153 124
-15 30 -40 135 -40 173 0 4 -86 7 -191 7 l-192 0 7 -78 c14 -172 65 -293 165
-392 151 -149 367 -208 729 -197 134 4 198 10 261 26 272 69 414 239 399 477
-7 102 -48 183 -133 262 -115 108 -234 166 -585 287 -123 42 -248 88 -277 102
-88 42 -120 95 -92 156 27 59 159 94 319 84 194 -12 292 -79 315 -214 l7 -43
189 0 189 0 0 38 c0 50 -33 179 -59 229 -119 235 -417 352 -816 322z"/>
<path d="M7010 7855 l0 -845 190 0 190 0 2 678 3 677 52 3 52 3 42 -133 c23
-73 119 -378 214 -678 l172 -545 376 -3 377 -2 0 845 0 845 -190 0 -190 0 0
-675 0 -675 -55 0 -54 0 -39 123 c-21 67 -117 371 -213 675 l-173 552 -378 0
-378 0 0 -845z"/>
<path d="M4223 5369 c-127 -11 -201 -32 -318 -89 -259 -126 -411 -357 -445
-675 -29 -265 51 -526 215 -703 156 -169 341 -249 596 -259 222 -9 389 27 541
117 85 51 189 153 237 234 43 72 89 200 97 272 l7 54 -188 -2 -187 -3 -22 -61
c-12 -33 -32 -77 -44 -96 -76 -122 -259 -200 -433 -184 -205 19 -338 118 -406
302 -34 91 -44 293 -19 397 45 190 166 315 345 353 122 26 269 11 362 -36 95
-49 183 -160 204 -257 l7 -33 192 0 193 0 -9 53 c-34 188 -146 371 -287 466
-121 82 -271 136 -405 146 -39 3 -87 7 -106 9 -19 2 -76 -1 -127 -5z"/>
<path d="M480 4506 l0 -846 190 0 190 0 2 298 3 297 330 0 330 0 3 -297 2
-298 190 0 190 0 0 288 c0 169 -4 302 -11 325 -14 52 -60 101 -107 115 -22 7
-103 12 -186 12 l-146 0 0 50 c0 49 0 49 38 55 153 26 277 89 330 170 43 66
56 115 56 210 -2 237 -131 372 -419 438 -82 18 -132 20 -537 24 l-448 5 0
-846z m807 505 c162 -16 213 -67 213 -212 0 -58 -5 -83 -23 -113 -45 -80 -114
-96 -414 -96 l-203 0 0 208 c0 115 3 212 7 215 9 10 312 8 420 -2z"/>
<path d="M2150 4505 l0 -845 605 0 605 0 -2 168 -3 167 -412 3 -413 2 0 170 0
170 355 0 355 0 0 165 0 165 -352 2 -353 3 0 170 0 170 413 3 412 2 0 165 0
165 -605 0 -605 0 0 -845z"/>
<path d="M5370 4505 l0 -845 195 0 195 0 0 300 0 300 330 0 330 0 0 -300 0
-300 190 0 190 0 0 302 c0 285 -1 304 -21 344 -37 77 -68 88 -259 94 l-165 5
-3 46 -3 46 86 18 c163 34 268 104 317 210 20 43 23 66 22 160 0 142 -22 202
-103 284 -65 67 -126 101 -243 135 -135 39 -237 46 -660 46 l-398 0 0 -845z
m808 505 c106 -10 157 -31 189 -78 47 -71 39 -223 -15 -275 -58 -55 -86 -61
-349 -65 l-243 -4 0 216 0 216 163 0 c89 0 204 -5 255 -10z"/>
<path d="M7000 4768 c0 -655 1 -665 70 -804 71 -144 204 -243 395 -296 71 -19
105 -22 295 -22 191 0 224 3 294 22 243 67 390 208 446 428 19 73 20 113 20
666 l0 588 -190 0 -190 0 0 -512 c0 -530 -5 -615 -41 -699 -50 -116 -148 -163
-339 -163 -191 0 -289 47 -339 163 -36 84 -41 169 -41 699 l0 512 -190 0 -190
0 0 -582z"/>
<path d="M8690 5185 l0 -165 193 -2 192 -3 3 -507 2 -508 -192 -2 -193 -3 -3
-167 -2 -168 575 0 575 0 0 170 0 170 -190 0 -190 0 0 510 0 510 190 0 190 0
0 165 0 165 -575 0 -575 0 0 -165z"/>
<path d="M10030 5185 l0 -165 280 0 280 0 0 -680 0 -680 190 0 190 0 2 678 3
677 273 3 272 2 0 165 0 165 -745 0 -745 0 0 -165z"/>
<path d="M11690 4505 l0 -845 195 0 195 0 0 680 0 680 29 0 28 0 37 -192 c20
-106 79 -411 130 -678 l92 -485 349 0 349 0 126 660 c69 364 129 668 133 678
4 10 17 17 32 17 l25 0 0 -680 0 -680 195 0 195 0 0 845 0 845 -380 0 -379 0
-7 -37 c-4 -21 -60 -324 -123 -673 l-116 -635 -50 0 -50 0 -116 635 c-63 349
-119 652 -123 673 l-7 37 -379 0 -380 0 0 -845z"/>
<path d="M14040 4505 l0 -845 600 0 600 0 0 170 0 170 -410 0 -410 0 0 170 0
170 350 0 350 0 0 165 0 165 -347 2 -348 3 -3 173 -2 172 410 0 410 0 0 165 0
165 -600 0 -600 0 0 -845z"/>
<path d="M15460 4505 l0 -845 190 0 190 0 2 678 3 677 52 3 52 3 42 -133 c23
-73 119 -378 214 -678 l172 -545 376 -3 377 -2 0 845 0 845 -190 0 -190 0 0
-675 0 -675 -55 0 -54 0 -39 123 c-21 67 -117 371 -213 675 l-173 552 -378 0
-378 0 0 -845z"/>
<path d="M17300 5185 l0 -165 278 -2 277 -3 3 -677 2 -678 190 0 190 0 0 680
0 680 275 0 275 0 0 165 0 165 -745 0 -745 0 0 -165z"/>
</g>
</svg>
